# xmcd
#
# Track frame offsets: 
#        182
#        11112
#        22550
#        34875
#        48622
#        62015
#        74885
#        88355
#        100777
#        113840
#        126975
#        140412
#        150320
#        162425
#        174775
#        186390
#        197765
#        211400
#        222502
#        234422
#        247797
#        261075
#        274082
#        286415
#        300660
#
# Disc length: 4176 seconds
#
# Revision: 6
# Processed by: cddbd v1.5.2PL0 Copyright (c) Steve Scherf et al.
# Submitted via: ExactAudioCopyFreeDBPlugin 1.0
#
DISCID=6d104e19
DTITLE=Various Artist - The Swingtime Records Story [Capricorn box se
DTITLE=t]
DYEAR=1994
DGENRE=Rhythm and Blues
TTITLE0=Lowell Fulson - Crying Blues (Street Walking Woman)
TTITLE1=Lowell Fulson - You're Gonna Miss Me (When I'm Gone)
TTITLE2=Floyd Dixon - Mississippi Blues
TTITLE3=Eddie Williams and His Brown Buddies - Saturday Night Fish Fry
TTITLE3=(with Floyd Dixon)
TTITLE4=Jimmy Witherspoon - In the Evening When the Sun Goes Down
TTITLE5=Jimmy Witherspoon - Wandering Gal
TTITLE6=Jimmy Witherspoon - I Hate to See Christmas Come Around
TTITLE7=Jimmy Witherspoon - Times Gettin' Tougher
TTITLE8=Jimmy Witherspoon - Ain't Nobody's Business, Pt. 1
TTITLE9=Joe Swift with the Johnny Otis Band - Alligator Meat
TTITLE10=Charles Brown - B&O Blues
TTITLE11=Nightengale Jubalaires - Rough and Rocky Road
TTITLE12=Pete Johnson Orchestra - Rocket Boogie 88, Pt. 2
TTITLE13=Big Joe Turner - Radar Blues
TTITLE14=Big Joe Turner - Wine-O-Baby Boogie
TTITLE15=Lowell Fulson - Everyday I Have the Blues (ft Lloyd Glenn at 
TTITLE15=the "88")
TTITLE16=Lowell Fulson - Blue Shadows
TTITLE17=Lowell Fulson - Low Society Blues
TTITLE18=Ray Charles - I Love You, I Love You (I Will Never Let You Go
TTITLE18=) (as "The Maxin Trio")
TTITLE19=Earl Jackson with the Johnny Otis Band - Take Out the Squeal 
TTITLE19=(If You Want a Meal)
TTITLE20=Earl Jackson with the Johnny Otis Band - A Woman Don't Want a
TTITLE20=Good Man No More
TTITLE21=Edgar Hayes and the Stardusters - Backwater Blues (with Lloyd
TTITLE21=Glenn)
TTITLE22=Stars of Harmony - Where Shall I Be
TTITLE23=Eddie Williams - Broken Hearted
TTITLE24=Ray Charles - You'll Never Miss the Water (Until the Well's G
TTITLE24=one Dry) (as "The Maxim Trio")
EXTD=YEAR: 1994
EXTT0=
EXTT1=
EXTT2=
EXTT3=
EXTT4=
EXTT5=
EXTT6=
EXTT7=
EXTT8=
EXTT9=
EXTT10=
EXTT11=
EXTT12=
EXTT13=
EXTT14=
EXTT15=
EXTT16=
EXTT17=
EXTT18=
EXTT19=
EXTT20=
EXTT21=
EXTT22=
EXTT23=
EXTT24=
PLAYORDER=
